<mxfile host="app.diagrams.net" agent="Mozilla/5.0 (Windows NT 10.0; Win64; x64) AppleWebKit/537.36 (KHTML, like Gecko) Chrome/129.0.0.0 Safari/537.36" version="24.7.17">
  <diagram name="Page-1" id="5f0bae14-7c28-e335-631c-24af17079c00">
    <mxGraphModel dx="1500" dy="746" grid="1" gridSize="10" guides="1" tooltips="1" connect="1" arrows="1" fold="1" page="1" pageScale="1" pageWidth="1100" pageHeight="850" background="none" math="0" shadow="0">
      <root>
        <mxCell id="0" />
        <mxCell id="1" parent="0" />
        <mxCell id="TwYq3cuiWZX15_ZyEWM0-2" value="App" style="verticalAlign=top;align=left;spacingTop=8;spacingLeft=2;spacingRight=12;shape=cube;size=10;direction=south;fontStyle=4;html=1;rounded=0;shadow=0;comic=0;labelBackgroundColor=none;strokeWidth=1;fontFamily=Verdana;fontSize=12;fillColor=#dae8fc;strokeColor=#6c8ebf;" parent="1" vertex="1">
          <mxGeometry x="360" y="40" width="1150" height="620" as="geometry" />
        </mxCell>
        <mxCell id="uTl4-yJKKDWTICAYQ3cT-62" value="Faker" style="verticalAlign=top;align=left;spacingTop=8;spacingLeft=2;spacingRight=12;shape=cube;size=10;direction=south;fontStyle=4;html=1;rounded=0;shadow=0;comic=0;labelBackgroundColor=none;strokeWidth=1;fontFamily=Verdana;fontSize=12;fillColor=#dae8fc;strokeColor=#6c8ebf;" parent="1" vertex="1">
          <mxGeometry x="1160" y="700" width="350" height="190" as="geometry" />
        </mxCell>
        <mxCell id="uTl4-yJKKDWTICAYQ3cT-61" value="Redis" style="verticalAlign=top;align=left;spacingTop=8;spacingLeft=2;spacingRight=12;shape=cube;size=10;direction=south;fontStyle=4;html=1;rounded=0;shadow=0;comic=0;labelBackgroundColor=none;strokeWidth=1;fontFamily=Verdana;fontSize=12;fillColor=#dae8fc;strokeColor=#6c8ebf;" parent="1" vertex="1">
          <mxGeometry x="760" y="700" width="350" height="190" as="geometry" />
        </mxCell>
        <mxCell id="uTl4-yJKKDWTICAYQ3cT-57" value="" style="rounded=0;whiteSpace=wrap;html=1;fillColor=#e1d5e7;strokeColor=#9673a6;" parent="1" vertex="1">
          <mxGeometry x="535" y="110" width="600" height="160" as="geometry" />
        </mxCell>
        <mxCell id="39150e848f15840c-3" value="Postgres" style="verticalAlign=top;align=left;spacingTop=8;spacingLeft=2;spacingRight=12;shape=cube;size=10;direction=south;fontStyle=4;html=1;rounded=0;shadow=0;comic=0;labelBackgroundColor=none;strokeWidth=1;fontFamily=Verdana;fontSize=12;fillColor=#dae8fc;strokeColor=#6c8ebf;" parent="1" vertex="1">
          <mxGeometry x="360" y="700" width="350" height="190" as="geometry" />
        </mxCell>
        <mxCell id="uTl4-yJKKDWTICAYQ3cT-4" value="Simple API Mock using&amp;nbsp;&lt;div&gt;dotronglong/faker&lt;/div&gt;" style="html=1;whiteSpace=wrap;" parent="1" vertex="1">
          <mxGeometry x="1245" y="755" width="180" height="80" as="geometry" />
        </mxCell>
        <mxCell id="uTl4-yJKKDWTICAYQ3cT-6" value="Simple API Mock using&amp;nbsp;&lt;div&gt;Redis&lt;/div&gt;" style="html=1;whiteSpace=wrap;" parent="1" vertex="1">
          <mxGeometry x="845" y="755" width="180" height="80" as="geometry" />
        </mxCell>
        <mxCell id="uTl4-yJKKDWTICAYQ3cT-12" value="Postgres database" style="html=1;whiteSpace=wrap;" parent="1" vertex="1">
          <mxGeometry x="445" y="755" width="180" height="80" as="geometry" />
        </mxCell>
        <mxCell id="uTl4-yJKKDWTICAYQ3cT-13" value="&lt;font style=&quot;font-size: 20px;&quot;&gt;Sample Endpoints&lt;/font&gt;" style="text;strokeColor=none;align=center;fillColor=none;html=1;verticalAlign=middle;whiteSpace=wrap;rounded=0;fontSize=16;fontStyle=1" parent="1" vertex="1">
          <mxGeometry x="770" y="60" width="130" height="30" as="geometry" />
        </mxCell>
        <mxCell id="uTl4-yJKKDWTICAYQ3cT-20" value="REST API" style="html=1;whiteSpace=wrap;fillColor=#f5f5f5;fontColor=#333333;strokeColor=#666666;" parent="1" vertex="1">
          <mxGeometry x="575" y="160" width="150" height="60" as="geometry" />
        </mxCell>
        <mxCell id="uTl4-yJKKDWTICAYQ3cT-21" value="Quarkus API" style="html=1;whiteSpace=wrap;fillColor=#f5f5f5;fontColor=#333333;strokeColor=#666666;" parent="1" vertex="1">
          <mxGeometry x="760" y="160" width="150" height="60" as="geometry" />
        </mxCell>
        <mxCell id="uTl4-yJKKDWTICAYQ3cT-26" value="«Repository»&lt;br&gt;&lt;div style=&quot;&quot;&gt;&lt;pre style=&quot;font-family:&#39;JetBrains Mono&#39;,monospace;font-size:9.8pt;&quot;&gt;&lt;b&gt;LogSearchLocationRepository&lt;/b&gt;&lt;/pre&gt;&lt;/div&gt;" style="html=1;dropTarget=0;whiteSpace=wrap;strokeColor=#10739e;labelBackgroundColor=none;fillColor=#b1ddf0;" parent="1" vertex="1">
          <mxGeometry x="430" y="500" width="210" height="90" as="geometry" />
        </mxCell>
        <mxCell id="uTl4-yJKKDWTICAYQ3cT-22" value="Simple UI" style="html=1;whiteSpace=wrap;fillColor=#f5f5f5;strokeColor=#666666;fontColor=#333333;" parent="1" vertex="1">
          <mxGeometry x="945" y="160" width="150" height="60" as="geometry" />
        </mxCell>
        <mxCell id="uTl4-yJKKDWTICAYQ3cT-28" value="«Service»&lt;br&gt;&lt;div style=&quot;&quot;&gt;&lt;pre style=&quot;font-family: &amp;quot;JetBrains Mono&amp;quot;, monospace; font-size: 9.8pt;&quot;&gt;&lt;div style=&quot;&quot;&gt;&lt;h1 style=&quot;font-family: &amp;quot;JetBrains Mono&amp;quot;, monospace; font-size: 9.8pt;&quot;&gt;LogSearchService&lt;/h1&gt;&lt;/div&gt;&lt;/pre&gt;&lt;/div&gt;" style="html=1;dropTarget=0;whiteSpace=wrap;fillColor=#d5e8d4;strokeColor=#82b366;fontColor=default;labelBackgroundColor=none;" parent="1" vertex="1">
          <mxGeometry x="460" y="340" width="150" height="90" as="geometry" />
        </mxCell>
        <mxCell id="uTl4-yJKKDWTICAYQ3cT-32" value="«Service»&lt;br&gt;&lt;div style=&quot;&quot;&gt;&lt;pre style=&quot;font-family: &amp;quot;JetBrains Mono&amp;quot;, monospace; font-size: 9.8pt;&quot;&gt;&lt;div style=&quot;&quot;&gt;&lt;h1 style=&quot;font-family: &amp;quot;JetBrains Mono&amp;quot;, monospace; font-size: 9.8pt;&quot;&gt;Location&lt;span style=&quot;font-size: 9.8pt; background-color: initial; white-space: normal;&quot;&gt;SearchService&lt;/span&gt;&lt;/h1&gt;&lt;/div&gt;&lt;/pre&gt;&lt;/div&gt;" style="html=1;dropTarget=0;whiteSpace=wrap;fillColor=#d5e8d4;strokeColor=#82b366;fontColor=default;labelBackgroundColor=none;" parent="1" vertex="1">
          <mxGeometry x="750" y="340" width="170" height="90" as="geometry" />
        </mxCell>
        <mxCell id="uTl4-yJKKDWTICAYQ3cT-36" value="«Profile2»&lt;br&gt;«Repository»&lt;br&gt;&lt;div style=&quot;&quot;&gt;&lt;pre style=&quot;font-family: &amp;quot;JetBrains Mono&amp;quot;, monospace; font-size: 9.8pt;&quot;&gt;&lt;div style=&quot;&quot;&gt;&lt;h1 style=&quot;font-family: &amp;quot;JetBrains Mono&amp;quot;, monospace; font-size: 9.8pt;&quot;&gt;Location&lt;span style=&quot;font-size: 9.8pt; background-color: initial; white-space: normal;&quot;&gt;ProviderRedis&lt;/span&gt;&lt;/h1&gt;&lt;/div&gt;&lt;/pre&gt;&lt;/div&gt;" style="html=1;dropTarget=0;whiteSpace=wrap;labelBackgroundColor=none;fillColor=#b1ddf0;strokeColor=#10739e;" parent="1" vertex="1">
          <mxGeometry x="850" y="500" width="170" height="90" as="geometry" />
        </mxCell>
        <mxCell id="uTl4-yJKKDWTICAYQ3cT-41" value="«Profile1»&lt;br&gt;«Repository»&lt;br&gt;&lt;div style=&quot;&quot;&gt;&lt;pre style=&quot;font-family: &amp;quot;JetBrains Mono&amp;quot;, monospace; font-size: 9.8pt;&quot;&gt;&lt;div style=&quot;&quot;&gt;&lt;h1 style=&quot;font-family: &amp;quot;JetBrains Mono&amp;quot;, monospace; font-size: 9.8pt;&quot;&gt;Location&lt;span style=&quot;font-size: 9.8pt; background-color: initial; white-space: normal;&quot;&gt;ProviderRedis&lt;/span&gt;&lt;/h1&gt;&lt;/div&gt;&lt;/pre&gt;&lt;/div&gt;" style="html=1;dropTarget=0;whiteSpace=wrap;labelBackgroundColor=none;fillColor=#b1ddf0;strokeColor=#10739e;" parent="1" vertex="1">
          <mxGeometry x="1250" y="500" width="170" height="90" as="geometry" />
        </mxCell>
        <mxCell id="uTl4-yJKKDWTICAYQ3cT-43" value="" style="endArrow=open;endSize=12;dashed=1;html=1;rounded=0;exitX=1;exitY=0.5;exitDx=0;exitDy=0;entryX=0;entryY=0.5;entryDx=0;entryDy=0;fontSize=18;" parent="1" source="uTl4-yJKKDWTICAYQ3cT-32" target="uTl4-yJKKDWTICAYQ3cT-49" edge="1">
          <mxGeometry width="160" relative="1" as="geometry">
            <mxPoint x="735" y="460" as="sourcePoint" />
            <mxPoint x="855" y="495" as="targetPoint" />
            <Array as="points" />
          </mxGeometry>
        </mxCell>
        <mxCell id="uTl4-yJKKDWTICAYQ3cT-45" value="" style="endArrow=open;endSize=12;dashed=1;html=1;rounded=0;entryX=0.5;entryY=0;entryDx=0;entryDy=0;fontSize=18;exitX=0.5;exitY=1;exitDx=0;exitDy=0;" parent="1" source="uTl4-yJKKDWTICAYQ3cT-36" target="uTl4-yJKKDWTICAYQ3cT-6" edge="1">
          <mxGeometry width="160" relative="1" as="geometry">
            <mxPoint x="1070" y="560" as="sourcePoint" />
            <mxPoint x="1170" y="720" as="targetPoint" />
            <Array as="points" />
          </mxGeometry>
        </mxCell>
        <mxCell id="uTl4-yJKKDWTICAYQ3cT-46" value="" style="endArrow=open;endSize=12;dashed=1;html=1;rounded=0;exitX=0.5;exitY=1;exitDx=0;exitDy=0;entryX=0.5;entryY=0;entryDx=0;entryDy=0;fontSize=18;" parent="1" source="uTl4-yJKKDWTICAYQ3cT-41" target="uTl4-yJKKDWTICAYQ3cT-4" edge="1">
          <mxGeometry width="160" relative="1" as="geometry">
            <mxPoint x="900" y="360" as="sourcePoint" />
            <mxPoint x="980" y="540" as="targetPoint" />
            <Array as="points" />
          </mxGeometry>
        </mxCell>
        <mxCell id="uTl4-yJKKDWTICAYQ3cT-47" value="" style="endArrow=open;endSize=12;dashed=1;html=1;rounded=0;fontSize=18;exitX=0.5;exitY=1;exitDx=0;exitDy=0;" parent="1" source="uTl4-yJKKDWTICAYQ3cT-26" target="uTl4-yJKKDWTICAYQ3cT-12" edge="1">
          <mxGeometry width="160" relative="1" as="geometry">
            <mxPoint x="710" y="660" as="sourcePoint" />
            <mxPoint x="790" y="850" as="targetPoint" />
            <Array as="points" />
          </mxGeometry>
        </mxCell>
        <mxCell id="uTl4-yJKKDWTICAYQ3cT-48" value="" style="endArrow=open;endSize=12;dashed=1;html=1;rounded=0;exitX=0;exitY=0.5;exitDx=0;exitDy=0;entryX=1;entryY=0.5;entryDx=0;entryDy=0;fontSize=18;" parent="1" source="uTl4-yJKKDWTICAYQ3cT-32" target="uTl4-yJKKDWTICAYQ3cT-28" edge="1">
          <mxGeometry width="160" relative="1" as="geometry">
            <mxPoint x="534.58" y="410" as="sourcePoint" />
            <mxPoint x="534.58" y="460" as="targetPoint" />
            <Array as="points" />
          </mxGeometry>
        </mxCell>
        <mxCell id="uTl4-yJKKDWTICAYQ3cT-49" value="«Repository&lt;span style=&quot;background-color: initial;&quot;&gt;»&lt;/span&gt;&lt;div&gt;&lt;div style=&quot;&quot;&gt;&lt;pre style=&quot;font-family: &amp;quot;JetBrains Mono&amp;quot;, monospace; font-size: 9.8pt;&quot;&gt;&lt;div style=&quot;&quot;&gt;&lt;h1 style=&quot;font-family: &amp;quot;JetBrains Mono&amp;quot;, monospace; font-size: 9.8pt;&quot;&gt;Location&lt;span style=&quot;white-space: normal;&quot;&gt;Provider&lt;/span&gt;&lt;/h1&gt;&lt;/div&gt;&lt;/pre&gt;&lt;/div&gt;&lt;/div&gt;" style="html=1;dropTarget=0;whiteSpace=wrap;labelBackgroundColor=none;fillColor=#bac8d3;strokeColor=#23445d;" parent="1" vertex="1">
          <mxGeometry x="1060" y="340" width="160" height="90" as="geometry" />
        </mxCell>
        <mxCell id="uTl4-yJKKDWTICAYQ3cT-51" value="" style="endArrow=block;dashed=1;endFill=0;endSize=12;html=1;rounded=0;exitX=0.5;exitY=0;exitDx=0;exitDy=0;entryX=0.5;entryY=1;entryDx=0;entryDy=0;" parent="1" source="uTl4-yJKKDWTICAYQ3cT-41" target="uTl4-yJKKDWTICAYQ3cT-49" edge="1">
          <mxGeometry width="160" relative="1" as="geometry">
            <mxPoint x="940" y="340" as="sourcePoint" />
            <mxPoint x="1180" y="490" as="targetPoint" />
            <Array as="points">
              <mxPoint x="1335" y="490" />
              <mxPoint x="1140" y="490" />
            </Array>
          </mxGeometry>
        </mxCell>
        <mxCell id="uTl4-yJKKDWTICAYQ3cT-53" value="" style="endArrow=block;dashed=1;endFill=0;endSize=12;html=1;rounded=0;exitX=0.5;exitY=0;exitDx=0;exitDy=0;" parent="1" source="uTl4-yJKKDWTICAYQ3cT-36" edge="1">
          <mxGeometry width="160" relative="1" as="geometry">
            <mxPoint x="500" y="380" as="sourcePoint" />
            <mxPoint x="1140" y="430" as="targetPoint" />
            <Array as="points">
              <mxPoint x="935" y="490" />
              <mxPoint x="1140" y="490" />
            </Array>
          </mxGeometry>
        </mxCell>
        <mxCell id="uTl4-yJKKDWTICAYQ3cT-60" value="" style="endArrow=open;endSize=12;dashed=1;html=1;rounded=0;exitX=0.5;exitY=1;exitDx=0;exitDy=0;entryX=0.5;entryY=0;entryDx=0;entryDy=0;fontSize=18;" parent="1" source="uTl4-yJKKDWTICAYQ3cT-57" target="uTl4-yJKKDWTICAYQ3cT-32" edge="1">
          <mxGeometry width="160" relative="1" as="geometry">
            <mxPoint x="545" y="395" as="sourcePoint" />
            <mxPoint x="545" y="530" as="targetPoint" />
            <Array as="points" />
          </mxGeometry>
        </mxCell>
        <mxCell id="TwYq3cuiWZX15_ZyEWM0-3" value="&lt;font style=&quot;font-size: 20px;&quot;&gt;Log &lt;font style=&quot;font-size: 20px;&quot;&gt;Database&lt;/font&gt;&lt;/font&gt;" style="text;strokeColor=none;align=center;fillColor=none;html=1;verticalAlign=middle;whiteSpace=wrap;rounded=0;fontSize=16;fontStyle=1" parent="1" vertex="1">
          <mxGeometry x="550" y="620" width="130" height="30" as="geometry" />
        </mxCell>
        <mxCell id="TwYq3cuiWZX15_ZyEWM0-5" value="&lt;span style=&quot;font-size: 20px;&quot;&gt;API Mock&lt;/span&gt;" style="text;strokeColor=none;align=center;fillColor=none;html=1;verticalAlign=middle;whiteSpace=wrap;rounded=0;fontSize=16;fontStyle=1" parent="1" vertex="1">
          <mxGeometry x="1075" y="620" width="130" height="30" as="geometry" />
        </mxCell>
        <mxCell id="TwYq3cuiWZX15_ZyEWM0-7" value="" style="endArrow=open;endSize=12;dashed=1;html=1;rounded=0;exitX=0.5;exitY=1;exitDx=0;exitDy=0;fontSize=18;" parent="1" source="uTl4-yJKKDWTICAYQ3cT-28" target="uTl4-yJKKDWTICAYQ3cT-26" edge="1">
          <mxGeometry width="160" relative="1" as="geometry">
            <mxPoint x="760" y="395" as="sourcePoint" />
            <mxPoint x="620" y="395" as="targetPoint" />
            <Array as="points" />
          </mxGeometry>
        </mxCell>
      </root>
    </mxGraphModel>
  </diagram>
</mxfile>
